<?xml version="1.0" encoding="UTF-8"?>
<svg width="25px" height="25px" viewBox="0 0 25 25" version="1.1" xmlns="http://www.w3.org/2000/svg" xmlns:xlink="http://www.w3.org/1999/xlink">
    <!-- Generator: Sketch 55.2 (78181) - https://sketchapp.com -->
    <title>icon</title>
    <desc>Created with Sketch.</desc>
    <g id="Page-1" stroke="none" stroke-width="1" fill="none" fill-rule="evenodd">
        <g id="Artboard" transform="translate(-21.000000, -14.000000)" fill-rule="nonzero">
            <g id="icon" transform="translate(21.000000, 14.000000)">
                <path d="M24.3898374,21.5862144 L19.1012406,16.5091616 C20.1939604,14.9281451 20.8335503,13.0351254 20.8335503,11.0001042 C20.8335503,5.48604673 16.160585,1 10.4167752,1 C4.67296534,1 0,5.48604673 0,11.0001042 C0,16.5141616 4.67296534,21.0002083 10.4167752,21.0002083 C12.5365889,21.0002083 14.5084845,20.3862019 16.1553766,19.337191 L21.4439734,24.4142439 C22.2564818,25.195252 23.5773289,25.195252 24.3898374,24.4142439 C25.2033875,23.6332358 25.2033875,22.3672226 24.3898374,21.5862144 Z M3.12503255,11.0001042 C3.12503255,7.14006396 6.39589996,4.00003125 10.4167752,4.00003125 C14.4376504,4.00003125 17.7085178,7.14006396 17.7085178,11.0001042 C17.7085178,14.8601444 14.4376504,18.0001771 10.4167752,18.0001771 C6.39589996,18.0001771 3.12503255,14.8601444 3.12503255,11.0001042 Z" id="shadow" fill="#CCCCCC"></path>
                <path d="M24.3898374,20.5862144 L19.1012406,15.5091616 C20.1939604,13.9281451 20.8335503,12.0351254 20.8335503,10.0001042 C20.8335503,4.48604673 16.160585,0 10.4167752,0 C4.67296534,0 0,4.48604673 0,10.0001042 C0,15.5141616 4.67296534,20.0002083 10.4167752,20.0002083 C12.5365889,20.0002083 14.5084845,19.3862019 16.1553766,18.337191 L21.4439734,23.4142439 C22.2564818,24.195252 23.5773289,24.195252 24.3898374,23.4142439 C25.2033875,22.6332358 25.2033875,21.3672226 24.3898374,20.5862144 Z M3.12503255,10.0001042 C3.12503255,6.14006396 6.39589996,3.00003125 10.4167752,3.00003125 C14.4376504,3.00003125 17.7085178,6.14006396 17.7085178,10.0001042 C17.7085178,13.8601444 14.4376504,17.0001771 10.4167752,17.0001771 C6.39589996,17.0001771 3.12503255,13.8601444 3.12503255,10.0001042 Z" fill="#F5F5F5"></path>
            </g>
        </g>
    </g>
</svg>